<?xml version="1.0" standalone="no"?>
<!DOCTYPE svg PUBLIC "-//W3C//DTD SVG 20010904//EN"
 "http://www.w3.org/TR/2001/REC-SVG-20010904/DTD/svg10.dtd">
<svg version="1.0" xmlns="http://www.w3.org/2000/svg"
 width="500.000000pt" height="500.000000pt" viewBox="0 0 500.000000 500.000000"
 preserveAspectRatio="xMidYMid meet">

<g transform="translate(0.000000,500.000000) scale(0.100000,-0.100000)"
fill="#fb7185" stroke="none">
<path d="M1950 3891 c0 -4 26 -11 58 -15 73 -8 121 -34 147 -77 19 -33 20 -55
23 -751 l3 -718 119 0 120 0 0 713 c0 658 1 715 18 746 25 50 61 72 141 84 39
6 71 15 71 19 0 4 -157 8 -350 8 -192 0 -350 -4 -350 -9z"/>
<path d="M3160 3066 c-347 -74 -543 -299 -605 -693 l-7 -43 131 0 c151 0 136
-13 146 125 19 273 112 466 263 548 101 55 287 73 406 40 49 -13 71 -27 111
-67 59 -60 84 -127 92 -248 6 -77 6 -78 33 -78 49 0 125 29 154 59 31 32 48
90 39 135 -18 96 -99 162 -254 207 -96 27 -406 36 -509 15z"/>
<path d="M2136 1791 c-37 -103 -122 -165 -246 -178 -78 -8 -78 -23 0 -23 84 0
203 26 277 60 65 30 144 101 176 158 l18 32 -103 0 -104 0 -18 -49z"/>
<path d="M2612 1788 c87 -232 253 -383 495 -450 69 -20 103 -22 283 -22 189 0
213 2 300 26 53 14 122 36 155 49 l60 24 3 213 2 212 -120 0 -120 0 -2 -237
-3 -238 -50 -13 c-27 -7 -100 -16 -161 -19 -309 -16 -497 103 -582 367 -12 36
-24 82 -28 103 l-6 37 -123 0 -123 0 20 -52z"/>
</g>
</svg>
